<?xml version="1.0" encoding="UTF-8" standalone="no"?>
<svg
   version="1.0"
   width="456.000000pt"
   height="456.000000pt"
   viewBox="0 0 456.000000 456.000000"
   preserveAspectRatio="xMidYMid meet"
   id="svg1"
   sodipodi:docname="icon.svg"
   xml:space="preserve"
   inkscape:version="1.4.2 (ebf0e940, 2025-05-08)"
   xmlns:inkscape="http://www.inkscape.org/namespaces/inkscape"
   xmlns:sodipodi="http://sodipodi.sourceforge.net/DTD/sodipodi-0.dtd"
   xmlns:xlink="http://www.w3.org/1999/xlink"
   xmlns="http://www.w3.org/2000/svg"
   xmlns:svg="http://www.w3.org/2000/svg"><defs
     id="defs1"><linearGradient
       id="linearGradient10"
       inkscape:collect="always"><stop
         style="stop-color:#ffffff;stop-opacity:1;"
         offset="0"
         id="stop10" /><stop
         style="stop-color:#efefef;stop-opacity:1;"
         offset="1"
         id="stop11" /></linearGradient><linearGradient
       id="linearGradient4"
       inkscape:collect="always"><stop
         style="stop-color:#35baf3;stop-opacity:1;"
         offset="0"
         id="stop4" /><stop
         style="stop-color:#1fa8e2;stop-opacity:1;"
         offset="1"
         id="stop5" /></linearGradient><linearGradient
       inkscape:collect="always"
       xlink:href="#linearGradient4"
       id="linearGradient5"
       x1="2270.1807"
       y1="3932.4412"
       x2="2270.1807"
       y2="488.96558"
       gradientUnits="userSpaceOnUse" /><linearGradient
       inkscape:collect="always"
       xlink:href="#linearGradient10"
       id="linearGradient11"
       x1="226.44818"
       y1="139.52866"
       x2="226.44818"
       y2="329.12476"
       gradientUnits="userSpaceOnUse" /></defs><sodipodi:namedview
     id="namedview1"
     pagecolor="#ffffff"
     bordercolor="#111111"
     borderopacity="1"
     inkscape:showpageshadow="0"
     inkscape:pageopacity="0"
     inkscape:pagecheckerboard="1"
     inkscape:deskcolor="#d1d1d1"
     inkscape:document-units="pt"
     inkscape:zoom="1.1782738"
     inkscape:cx="177.80247"
     inkscape:cy="353.90755"
     inkscape:window-width="2560"
     inkscape:window-height="1387"
     inkscape:window-x="1680"
     inkscape:window-y="25"
     inkscape:window-maximized="1"
     inkscape:current-layer="svg1" /><rect
     style="fill:url(#linearGradient11);fill-opacity:1;stroke:#20a8e2;stroke-opacity:1;stroke-width:0.75"
     id="rect1"
     width="188.8461"
     height="222.74767"
     x="132.02513"
     y="122.95288" /><g
     transform="translate(0.000000,456.000000) scale(0.100000,-0.100000)"
     fill="#000000"
     stroke="none"
     id="g1"
     style="fill:url(#linearGradient5);fill-opacity:1;stroke:#20a8e2;stroke-opacity:1"><path
       d="m 2074.3719,4102.2667 c -122.1663,-17.7367 -513.7837,-111.9624 -605.123,-145.2184 -87.9141,-33.2561 -253.4666,-134.133 -387.0504,-236.1183 -76.4966,-59.8612 -253.46665,-284.8941 -305.98675,-390.2053 -18.26787,-37.6901 -58.22882,-165.1719 -86.77236,-282.6768 -50.23656,-199.5367 -54.80353,-223.9245 -53.66178,-358.0575 0,-130.8075 4.56696,-161.8465 49.09481,-342.538 27.4018,-109.7451 55.94534,-218.3819 65.07927,-241.661 14.84264,-41.0159 13.7009,-46.5585 -14.84264,-89.7915 -59.37045,-90.9001 -95.90622,-187.3427 -140.43414,-373.577 -25.11832,-104.2024 -45.66966,-199.5366 -45.66966,-213.9477 0,-13.3024 20.55134,-106.4195 44.52792,-205.0793 42.24444,-175.1489 46.8114,-185.1257 110.74886,-276.02577 99.33152,-140.78429 140.43421,-181.80015 282.01013,-278.2428 214.64744,-147.43542 315.12074,-188.45129 653.07624,-268.26595 364.2156,-86.4659 412.1687,-93.11713 616.5405,-92.00859 213.5056,0 307.1284,14.41097 622.2491,89.7915 254.6083,62.07807 342.5225,98.65981 502.3662,208.40497 174.6865,119.72204 221.4979,164.06342 328.8216,307.0647 150.7099,199.53674 163.2691,227.25014 238.624,534.31504 41.1027,166.2805 43.3862,188.4512 43.3862,349.1891 0,165.172 -2.2835,179.583 -50.2367,370.2512 -47.9531,191.777 -110.7489,348.0808 -154.1351,382.4454 -14.8426,12.194 -13.7008,18.8451 0,52.1012 26.2601,62.0781 107.3237,399.0735 107.3237,447.8491 0,47.667 -74.2131,368.0342 -93.6228,404.616 -6.8504,12.1939 -47.9531,70.9463 -91.3393,129.6988 -70.7879,96.4427 -93.6228,117.5048 -210.0804,198.4283 -171.2612,117.5047 -328.8216,180.6914 -615.3987,248.3121 -117.5994,27.7134 -256.8919,57.644 -310.5537,66.5122 -106.182,17.7367 -385.9086,19.9537 -498.9411,4.4343 z m 611.9735,-711.6809 c 146.1429,-37.6902 345.9477,-115.2878 403.0347,-157.4122 25.1184,-18.8452 57.0872,-50.9928 71.9298,-72.0549 23.9766,-34.3647 26.26,-49.8843 22.8348,-123.0477 -2.2835,-69.8377 -10.2757,-96.4427 -45.6696,-166.2805 -54.8036,-107.528 -139.2925,-207.2965 -203.2301,-240.5526 -75.3549,-38.7989 -138.1507,-28.822 -313.9789,46.5586 -192.9543,83.1403 -253.4666,98.6598 -353.9399,93.117 -105.0401,-6.651 -142.7176,-28.8219 -142.7176,-85.3573 0,-83.1403 76.4967,-117.5049 363.0738,-167.389 348.2311,-59.861 500.0828,-117.5051 625.6744,-238.3355 129.0167,-124.1561 175.8281,-252.7464 175.8281,-488.8648 0,-250.5295 -57.087,-403.5076 -205.5134,-547.6173 -179.2535,-175.1489 -438.4288,-254.96358 -824.3375,-254.96358 -247.7578,0 -465.8305,39.90738 -670.2022,121.93918 -221.4979,87.5742 -332.2469,193.9938 -332.2469,314.8244 0,123.0476 152.9934,395.7477 252.3249,450.0661 41.1028,22.1706 58.2289,24.3878 141.576,19.9536 92.4811,-4.434 100.4733,-7.7597 293.4276,-99.7682 219.2144,-106.4196 283.1519,-125.2647 398.4678,-117.505 95.9063,6.6512 139.2924,31.039 133.5837,73.1635 -5.7086,43.2329 -63.9375,75.3805 -189.529,101.9853 -206.6552,45.4501 -368.7825,89.7916 -471.5393,128.5904 -226.0648,88.683 -369.9243,231.6842 -440.7122,442.3061 -27.4019,79.8148 -29.6853,105.3112 -30.827,260.5064 0,155.1951 3.4251,179.5829 29.6852,257.1805 89.0558,259.3977 305.9868,410.1587 677.0528,470.0198 60.5123,9.9768 164.4107,13.3023 308.2702,11.0853 188.3874,-3.3256 231.7735,-7.7598 327.6798,-32.1476 z"
       id="path2"
       style="fill:url(#linearGradient5);stroke-width:1.12502;fill-opacity:1;stroke:#20a8e2;stroke-opacity:1" /><path
       d="M2076 3929 c-107 -16 -450 -101 -530 -131 -77 -30 -222 -121 -339 -213 -67 -54 -222 -257 -268 -352 -16 -34 -51 -149 -76 -255 -44 -180 -48 -202 -47 -323 0 -118 4 -146 43 -309 24 -99 49 -197 57 -218 13 -37 12 -42 -13 -81 -52 -82 -84 -169 -123 -337 -22 -94 -40 -180 -40 -193 0 -12 18 -96 39 -185 37 -158 41 -167 97 -249 87 -127 123 -164 247 -251 188 -133 276 -170 572 -242 319 -78 361 -84 540 -83 187 0 269 13 545 81 223 56 300 89 440 188 153 108 194 148 288 277 132 180 143 205 209 482 36 150 38 170 38 315 0 149 -2 162 -44 334 -42 173 -97 314 -135 345 -13 11 -12 17 0 47 23 56 94 360 94 404 0 43 -65 332 -82 365 -6 11 -42 64 -80 117 -62 87 -82 106 -184 179 -150 106 -288 163 -539 224 -103 25 -225 52 -272 60 -93 16 -338 18 -437 4z m536 -642 c128 -34 303 -104 353 -142 22 -17 50 -46 63 -65 21 -31 23 -45 20 -111 -2 -63 -9 -87 -40 -150 -48 -97 -122 -187 -178 -217 -66 -35 -121 -26 -275 42 -169 75 -222 89 -310 84 -92 -6 -125 -26 -125 -77 0 -75 67 -106 318 -151 305 -54 438 -106 548 -215 113 -112 154 -228 154 -441 0 -226 -50 -364 -180 -494 -157 -158 -384 -230 -722 -230 -217 0 -408 36 -587 110 -194 79 -291 175 -291 284 0 111 134 357 221 406 36 20 51 22 124 18 81 -4 88 -7 257 -90 192 -96 248 -113 349 -106 84 6 122 28 117 66 -5 39 -56 68 -166 92 -181 41 -323 81 -413 116 -198 80 -324 209 -386 399 -24 72 -26 95 -27 235 0 140 3 162 26 232 78 234 268 370 593 424 53 9 144 12 270 10 165 -3 203 -7 287 -29z"
       id="path1"
       style="fill:url(#linearGradient5);fill-opacity:1;stroke:#20a8e2;stroke-opacity:1" /></g><path
     style="fill:#1989b8;fill-opacity:1;stroke-width:0.538752"
     d="m 279.54307,566.24554 c -10.82489,-0.80111 -24.49028,-3.31551 -48.41832,-8.90884 -35.89317,-8.39026 -47.08974,-11.51761 -61.04479,-17.05061 -11.78711,-4.67344 -18.36167,-8.30081 -34.58375,-19.08085 C 116.02839,508.2683 109.51908,502.44604 99.401306,488.92008 89.626143,475.85214 86.732129,471.05547 84.348841,463.97146 81.56331,455.69183 73.539694,421.25494 73.539694,417.57924 c 0,-4.66148 7.912095,-38.17849 11.965726,-50.6889 3.571932,-11.02378 6.625289,-17.77072 12.068839,-26.66824 4.349041,-7.10854 4.331671,-6.99365 2.147563,-14.20384 -3.976662,-13.1278 -11.323857,-42.70744 -13.333154,-53.67896 -1.048144,-5.72326 -1.188016,-8.38124 -1.219094,-23.16635 -0.04091,-19.46296 -0.01988,-19.61542 6.093269,-44.17769 3.98817,-16.02422 8.070788,-30.09423 10.786547,-37.17391 2.99264,-7.80148 10.94316,-19.80213 23.42934,-35.36466 12.2323,-15.2461 17.06472,-19.72312 33.18383,-30.74335 17.10199,-11.692191 33.12041,-20.157707 44.17769,-23.347307 22.19119,-6.401299 64.29237,-16.063035 76.23346,-17.494697 8.03489,-0.963334 34.40675,-1.284899 47.14083,-0.574812 13.52177,0.754011 20.62804,1.884537 42.63746,6.783129 49.99713,11.127762 71.13293,18.948262 95.82189,35.455267 7.11197,4.75505 15.62382,11.09743 15.62382,11.64169 0,1.19133 7.35321,9.93841 9.83256,11.69641 2.17032,1.53888 4.41311,4.22218 9.49226,11.35668 3.65777,5.13794 7.12934,10.60193 7.7146,12.14219 2.31023,6.08003 8.88138,33.72697 11.00496,46.30137 l 0.97327,5.76308 -1.25908,6.8976 c -2.67634,14.66181 -10.1751,44.48283 -13.21937,52.57073 -1.66675,4.42814 -1.70614,5.51134 -0.24456,6.72583 1.44911,1.20411 4.80188,6.09916 6.54629,9.55758 4.81271,9.54158 10.22759,26.04438 15.46779,47.14083 5.15731,20.76278 5.11932,20.43769 5.1315,43.90831 0.009,17.44936 -0.13641,21.34773 -0.98508,26.39886 -1.34777,8.02168 -10.00078,42.56399 -12.75371,50.9121 -4.83539,14.66302 -11.39186,25.36782 -29.36779,47.94896 -11.18447,14.0498 -19.58249,21.26943 -41.70505,35.8531 -18.71852,12.33967 -30.22185,17.0853 -58.48587,24.12803 -27.9823,6.97253 -44.93009,10.39331 -59.29737,11.96872 -8.75886,0.96043 -40.50615,1.47156 -49.59999,0.79855 z m 28.35389,-25.85636 c 19.11069,-0.68877 30.04304,-2.47742 59.53213,-9.74012 33.34235,-8.2117 43.44776,-12.55063 64.80426,-27.82483 16.5809,-11.85867 22.85288,-17.84677 33.3733,-31.86278 17.28159,-23.0237 20.7028,-29.87188 26.82633,-53.69777 7.63084,-29.69065 8.31606,-34.30688 8.31693,-56.03024 7.4e-4,-18.40749 -0.39868,-22.26982 -3.81096,-36.85212 -6.20672,-26.52424 -13.21803,-46.12435 -18.74229,-52.39406 -1.21493,-1.37889 -2.20897,-2.86328 -2.20897,-3.29867 0,-0.43538 0.85521,-3.40235 1.90047,-6.59325 2.34382,-7.15503 7.10574,-26.42742 9.72323,-39.35179 1.58266,-7.81465 1.90584,-10.44125 1.68659,-13.70764 -0.53162,-7.92008 -8.42185,-42.55435 -10.73344,-47.11455 -1.45466,-2.86969 -11.87431,-17.75017 -16.31849,-23.30471 -7.15807,-8.94648 -25.39616,-22.03523 -41.48048,-29.76889 -17.32413,-8.32978 -41.20693,-15.325557 -78.95697,-23.128172 -19.0915,-3.946052 -53.36184,-4.209653 -72.05382,-0.554225 -16.33318,3.194139 -49.57037,11.504544 -61.12622,15.283597 -7.19567,2.35316 -16.4272,7.38937 -29.49341,16.08997 -10.08248,6.71379 -17.39493,12.25392 -21.72772,16.46155 -9.85515,9.5705 -26.66925,32.18866 -31.89299,42.90216 -3.5676,7.31687 -10.10537,30.4928 -14.89387,52.79773 -1.46681,6.83245 -1.64668,8.76781 -1.91052,20.55748 -0.32218,14.39683 0.18402,21.39452 2.29326,31.70149 1.79259,8.75965 7.93097,33.5458 10.25345,41.4024 1.13013,3.82304 1.74553,6.84839 1.53427,7.54253 -0.19401,0.63747 -1.54829,3.15228 -3.00951,5.58847 -7.58502,12.64599 -11.90363,25.42347 -18.16872,53.75582 -3.541567,16.01588 -3.529642,15.8953 -2.21265,22.37357 1.82542,8.9792 6.35632,28.36343 7.86697,33.65667 1.72016,6.02738 3.95951,10.6228 8.32101,17.07572 12.59681,18.63725 19.13473,25.00457 40.38067,39.32699 20.31357,13.69389 31.69239,18.30911 66.69116,27.04982 34.2287,8.54839 46.54253,10.94771 59.64626,11.62194 10.84933,0.55823 11.08913,0.55856 25.59074,0.0359 z"
     id="path3"
     transform="scale(0.75)" /></svg>
